M48
;Layer_Color=9474304
;FILE_FORMAT=4:4
METRIC,LZ
;TYPE=PLATED
T01F00S00C0.8900
T02F00S00C1.0000
T03F00S00C1.0500
T04F00S00C1.5000
T05F00S00C1.5700
T06F00S00C4.2500
;TYPE=NON_PLATED
T07F00S00C3.2500
%
T01
X0053467Y0068437
Y0070477
Y0072517
Y0074557
X0055247Y0075577
Y0073537
Y0071497
Y0069457
T02
X0103124Y0041021
Y0057821
X0063624
Y0041021
T03
X005673Y00955
X005927
X00648967
X00674367
X00730633
X00756033
X008123
X008377
X00893967
X00919367
X00975633
X01001033
X010573
X010827
T04
X0070485Y0044831
X0058674Y0083947
T05
X0054357Y0063887
Y0080147
T06
X0115Y004
X005
Y01
X0115
T07
X0050927Y0065667
Y0078367
M30
