%TF.GenerationSoftware,Altium Limited,Altium Designer,25.8.1 (18)*%
G04 Layer_Color=16711935*
%FSLAX45Y45*%
%MOMM*%
%TF.SameCoordinates,F645343F-A50C-4BAA-BA0C-079371E04E59*%
%TF.FilePolarity,Negative*%
%TF.FileFunction,Soldermask,Bot*%
%TF.Part,Single*%
G01*
G75*
%TA.AperFunction,ComponentPad*%
%ADD25C,2.40320*%
%ADD26C,1.72720*%
%ADD27R,2.40320X2.40320*%
%ADD28C,1.60320*%
%ADD29R,1.60320X1.60320*%
%ADD30R,1.72720X1.72720*%
%TA.AperFunction,ViaPad*%
%ADD31C,3.40320*%
%ADD32C,2.40320*%
D25*
X3086100Y5080000D02*
D03*
X2832100D02*
D03*
X2578100D02*
D03*
X2324100D02*
D03*
X2070100D02*
D03*
X1562100D02*
D03*
X4000500Y3810000D02*
D03*
X4254500D02*
D03*
X4508500D02*
D03*
X4762500D02*
D03*
Y3556000D02*
D03*
X4508500D02*
D03*
X4254500D02*
D03*
X4000500D02*
D03*
X3746500D02*
D03*
X4508500Y5080000D02*
D03*
X4254500D02*
D03*
X4000500D02*
D03*
X3746500D02*
D03*
X3492500D02*
D03*
X4762500D02*
D03*
X2730500Y254000D02*
D03*
X3238500D02*
D03*
D26*
X1816100Y5080000D02*
D03*
X1308100D02*
D03*
X1054100D02*
D03*
X800100D02*
D03*
X4254500Y254000D02*
D03*
X4508500D02*
D03*
X4762500D02*
D03*
X5016500D02*
D03*
X5270500D02*
D03*
X5016500Y5080000D02*
D03*
X2476500Y254000D02*
D03*
X2222500D02*
D03*
X1968500D02*
D03*
X1714500D02*
D03*
X2984500D02*
D03*
D27*
X3746500Y3810000D02*
D03*
D28*
X2404999Y3429000D02*
D03*
X1520002Y2540000D02*
D03*
D29*
X1905000Y3429000D02*
D03*
X1019998Y2540000D02*
D03*
D30*
X4000500Y254000D02*
D03*
X5270500Y5080000D02*
D03*
X3492500Y254000D02*
D03*
D31*
X444500Y5080000D02*
D03*
X317500Y254000D02*
D03*
X5524500Y3556000D02*
D03*
Y762000D02*
D03*
D32*
X5397500Y1905000D02*
D03*
X3937000Y1206500D02*
D03*
X5397500Y1143000D02*
D03*
X5016500Y1524000D02*
D03*
X3556000Y2159000D02*
D03*
X5016500Y1905000D02*
D03*
X5397500Y1524000D02*
D03*
%TF.MD5,6b8a81970ab0efae0e43bc9dbd50a93d*%
M02*
