M48
;Layer_Color=9474304
;FILE_FORMAT=4:4
METRIC,LZ
;TYPE=PLATED
T01F00S00C0.8100
T02F00S00C0.9000
T03F00S00C1.5000
T04F00S00C3.2000
%
T01
X0017145Y000254
X0019685
X0022225
X0024765
X0029845
X0034925
X0040005
X0042545
X0045085
X0047625
X0050165
X0052705
X0018161Y00508
X0013081
X0010541
X0008001
X0050165
X0052705
T02
X00102Y00254
X00152
X001905Y003429
X002405
T03
X0027305Y000254
X0032385
X003937Y0012065
X0050165Y001524
Y001905
X0053975
Y001524
Y001143
X0047625Y003556
Y00381
X0045085
X0042545
X0040005
Y003556
X0042545
X0045085
X0037465
Y00381
X003556Y002159
X0034925Y00508
X0037465
X0030861
X0028321
X0025781
X0023241
X0020701
X0015621
X0040005
X0042545
X0045085
X0047625
T04
X0003175Y000254
X0055245Y000762
Y003556
X0004445Y00508
M30
