%TF.GenerationSoftware,Altium Limited,Altium Designer,25.8.1 (18)*%
G04 Layer_Physical_Order=2*
G04 Layer_Color=16711680*
%FSLAX45Y45*%
%MOMM*%
%TF.SameCoordinates,F645343F-A50C-4BAA-BA0C-079371E04E59*%
%TF.FilePolarity,Positive*%
%TF.FileFunction,Copper,L2,Bot,Signal*%
%TF.Part,Single*%
G01*
G75*
%TA.AperFunction,Conductor*%
%ADD10C,1.00000*%
%TA.AperFunction,ComponentPad*%
%ADD11C,2.20000*%
%ADD12C,1.52400*%
%ADD13R,2.20000X2.20000*%
%ADD14C,1.40000*%
%ADD15R,1.40000X1.40000*%
%ADD16R,1.52400X1.52400*%
%TA.AperFunction,ViaPad*%
%ADD17C,3.20000*%
%ADD18C,2.20000*%
D10*
X4368998Y2159000D02*
X5143500D01*
X5397500Y1905000D01*
X2404999Y2540000D02*
Y3429000D01*
X1520002Y5010191D02*
X1562100Y5052289D01*
X2404999Y3429000D02*
Y3810000D01*
X3746500D01*
X1520002Y2540000D02*
Y5010191D01*
Y2540000D02*
X2404999D01*
X1562100Y5052289D02*
Y5080000D01*
X2730500Y2540000D02*
X3746500Y3556000D01*
X2730500Y254000D02*
Y2540000D01*
X3238500Y952500D02*
X4407002Y2121002D01*
X3556000Y2159000D02*
X4368998D01*
X4407002Y2121002D01*
X3238500Y254000D02*
Y952500D01*
X4046499Y1143000D02*
X5397500D01*
X3982999Y1206500D02*
X4046499Y1143000D01*
X3937000Y1206500D02*
X3982999D01*
D11*
X3086100Y5080000D02*
D03*
X2832100D02*
D03*
X2578100D02*
D03*
X2324100D02*
D03*
X2070100D02*
D03*
X1562100D02*
D03*
X4000500Y3810000D02*
D03*
X4254500D02*
D03*
X4508500D02*
D03*
X4762500D02*
D03*
Y3556000D02*
D03*
X4508500D02*
D03*
X4254500D02*
D03*
X4000500D02*
D03*
X3746500D02*
D03*
X4508500Y5080000D02*
D03*
X4254500D02*
D03*
X4000500D02*
D03*
X3746500D02*
D03*
X3492500D02*
D03*
X4762500D02*
D03*
X2730500Y254000D02*
D03*
X3238500D02*
D03*
D12*
X1816100Y5080000D02*
D03*
X1308100D02*
D03*
X1054100D02*
D03*
X800100D02*
D03*
X4254500Y254000D02*
D03*
X4508500D02*
D03*
X4762500D02*
D03*
X5016500D02*
D03*
X5270500D02*
D03*
X5016500Y5080000D02*
D03*
X2476500Y254000D02*
D03*
X2222500D02*
D03*
X1968500D02*
D03*
X1714500D02*
D03*
X2984500D02*
D03*
D13*
X3746500Y3810000D02*
D03*
D14*
X2404999Y3429000D02*
D03*
X1520002Y2540000D02*
D03*
D15*
X1905000Y3429000D02*
D03*
X1019998Y2540000D02*
D03*
D16*
X4000500Y254000D02*
D03*
X5270500Y5080000D02*
D03*
X3492500Y254000D02*
D03*
D17*
X444500Y5080000D02*
D03*
X317500Y254000D02*
D03*
X5524500Y3556000D02*
D03*
Y762000D02*
D03*
D18*
X5397500Y1905000D02*
D03*
X3937000Y1206500D02*
D03*
X5397500Y1143000D02*
D03*
X5016500Y1524000D02*
D03*
X3556000Y2159000D02*
D03*
X5016500Y1905000D02*
D03*
X5397500Y1524000D02*
D03*
%TF.MD5,5316fe76e53131ed050f59db80e0177d*%
M02*
