%TF.GenerationSoftware,Altium Limited,Altium Designer,25.8.1 (18)*%
G04 Layer_Color=65535*
%FSLAX45Y45*%
%MOMM*%
%TF.SameCoordinates,FC7F72DA-8BEC-4325-B811-EE9C5DDCC207*%
%TF.FilePolarity,Positive*%
%TF.FileFunction,Legend,Top*%
%TF.Part,Single*%
G01*
G75*
%TA.AperFunction,NonConductor*%
%ADD19C,0.25000*%
%ADD20C,0.20000*%
%ADD21C,1.00000*%
%ADD22C,0.25400*%
%ADD23C,0.15000*%
%ADD24C,0.12700*%
D19*
X3759000Y3942500D02*
G03*
X3759000Y3942500I-12500J0D01*
G01*
D20*
X2655000Y3429000D02*
G03*
X2655000Y3429000I-500000J0D01*
G01*
X1770000Y2540000D02*
G03*
X1770000Y2540000I-500000J0D01*
G01*
D21*
X3619500Y3404001D02*
X4889500D01*
X3619500Y3150001D02*
X4889500D01*
Y3404001D01*
X3619500Y3150001D02*
Y3404001D01*
X3213100Y4953000D02*
Y5207000D01*
X2959100Y4953000D02*
X3213100D01*
X2959100D02*
Y5207000D01*
X673100D02*
X2959100D01*
X673100Y4953000D02*
Y5207000D01*
Y4953000D02*
X2959100D01*
Y5207000D02*
X3213100D01*
X3873500Y254000D02*
Y381000D01*
X4127500D01*
Y127000D02*
X5397500D01*
Y381000D01*
X4127500D02*
X5397500D01*
X4127500Y127000D02*
Y381000D01*
X3873500Y127000D02*
X4127500D01*
X3873500D02*
Y254000D01*
X5397500Y4953000D02*
Y5207000D01*
X3365500Y4953000D02*
X5397500D01*
X3365500D02*
Y5207000D01*
X5397500D01*
X5143500Y4953000D02*
Y5207000D01*
X3619500Y127000D02*
Y381000D01*
X1587500Y127000D02*
X3619500D01*
X1587500D02*
Y381000D01*
X3619500D01*
X3365500Y127000D02*
Y381000D01*
D22*
X3633470Y4044967D02*
X3658862D01*
X3684253Y4070358D01*
Y4197317D01*
X3811213Y4095750D02*
X3861996D01*
X3887388Y4121142D01*
Y4171925D01*
X3861996Y4197317D01*
X3811213D01*
X3785821Y4171925D01*
Y4121142D01*
X3811213Y4095750D01*
X3938171Y4197317D02*
Y4121142D01*
X3963563Y4095750D01*
X4039739D01*
Y4070358D01*
X4014347Y4044967D01*
X3988955D01*
X4039739Y4095750D02*
Y4197317D01*
X4090522Y4095750D02*
X4166698D01*
X4192089Y4121142D01*
X4166698Y4146533D01*
X4115914D01*
X4090522Y4171925D01*
X4115914Y4197317D01*
X4192089D01*
X4268265Y4222709D02*
Y4197317D01*
X4242873D01*
X4293656D01*
X4268265D01*
Y4121142D01*
X4293656Y4095750D01*
X4369832D02*
X4420615D01*
X4395224D01*
Y4197317D01*
X4369832D01*
X4598358D02*
X4522182D01*
X4496791Y4171925D01*
Y4121142D01*
X4522182Y4095750D01*
X4598358D01*
X4649141D02*
Y4248101D01*
Y4146533D02*
X4725317Y4197317D01*
X4649141Y4146533D02*
X4725317Y4095750D01*
X2335073Y4170647D02*
X2309681Y4196039D01*
X2258898D01*
X2233506Y4170647D01*
Y4069080D01*
X2258898Y4043688D01*
X2309681D01*
X2335073Y4069080D01*
X2487424Y4043688D02*
X2385857D01*
X2487424Y4145255D01*
Y4170647D01*
X2462032Y4196039D01*
X2411248D01*
X2385857Y4170647D01*
X1476505Y3281527D02*
X1451113Y3306919D01*
X1400329D01*
X1374938Y3281527D01*
Y3179960D01*
X1400329Y3154568D01*
X1451113D01*
X1476505Y3179960D01*
X1527288Y3154568D02*
X1578072D01*
X1552680D01*
Y3306919D01*
X1527288Y3281527D01*
X4013200Y762000D02*
Y863567D01*
X4063983Y914351D01*
X4114767Y863567D01*
Y762000D01*
Y838175D01*
X4013200D01*
X4165551Y914351D02*
Y762000D01*
X4241726D01*
X4267118Y787392D01*
Y888959D01*
X4241726Y914351D01*
X4165551D01*
X4165600Y4381549D02*
X4114817D01*
X4140208D01*
Y4533900D01*
X4165600D01*
X4114817D01*
X3962466Y4381549D02*
X4013249D01*
X4038641Y4406941D01*
Y4508508D01*
X4013249Y4533900D01*
X3962466D01*
X3937074Y4508508D01*
Y4406941D01*
X3962466Y4381549D01*
X3886290D02*
Y4533900D01*
X3784723D01*
X1930400Y800100D02*
Y952451D01*
X2006575D01*
X2031967Y927059D01*
Y876275D01*
X2006575Y850883D01*
X1930400D01*
X2158926Y952451D02*
X2108143D01*
X2082751Y927059D01*
Y825492D01*
X2108143Y800100D01*
X2158926D01*
X2184318Y825492D01*
Y927059D01*
X2158926Y952451D01*
X2235101D02*
Y800100D01*
X2285885Y850883D01*
X2336669Y800100D01*
Y952451D01*
X2489019D02*
X2387452D01*
Y800100D01*
X2489019D01*
X2387452Y876275D02*
X2438236D01*
X2539803Y800100D02*
Y952451D01*
X2615978D01*
X2641370Y927059D01*
Y876275D01*
X2615978Y850883D01*
X2539803D01*
X2590586D02*
X2641370Y800100D01*
D23*
X1500030Y3428967D02*
X1599998D01*
X1550014Y3478951D02*
Y3378984D01*
X615030Y2539967D02*
X714998D01*
X665014Y2589951D02*
Y2489984D01*
D24*
X806085Y4779575D02*
X818054D01*
X830024Y4791545D01*
X830025Y4803515D01*
X824039Y4809500D01*
X812070Y4809500D01*
X800100Y4797530D01*
X788130Y4797530D01*
X782146Y4803515D01*
X782145Y4815485D01*
X794115Y4827454D01*
X806085D01*
X770176Y4743666D02*
X782145D01*
X794115Y4755636D01*
X794115Y4767605D01*
X770176Y4791545D01*
X758206D01*
X746236Y4779575D01*
Y4767605D01*
X764191Y4725711D02*
X728281Y4761621D01*
X704342Y4737681D01*
X1060085Y4792275D02*
X1072054D01*
X1084024Y4804245D01*
X1084025Y4816215D01*
X1078040Y4822200D01*
X1066070Y4822200D01*
X1054100Y4810230D01*
X1042130Y4810230D01*
X1036146Y4816215D01*
X1036145Y4828185D01*
X1048115Y4840154D01*
X1060085D01*
X1054100Y4774321D02*
X1018191Y4810230D01*
X1000236Y4792275D01*
Y4780305D01*
X1024176Y4756366D01*
X1036145D01*
X1054100Y4774321D01*
X982281D02*
X1006221Y4750381D01*
Y4726442D01*
X982281D01*
X958342Y4750381D01*
X976296Y4732426D01*
X1000236Y4756366D01*
X1919891Y511070D02*
X1931860Y523040D01*
X1925876Y517055D01*
X1961785Y481146D01*
X1955800Y475161D01*
X1967770Y487130D01*
X1967770Y558949D02*
X1955800Y546979D01*
X1955800Y535010D01*
X1979739Y511070D01*
X1991710D01*
X2003679Y523040D01*
Y535010D01*
X1979739Y558949D01*
X1967770D01*
X2021634Y540995D02*
X1985725Y576904D01*
X2003679Y594859D01*
X2015649D01*
X2027619Y582889D01*
Y570919D01*
X2009664Y552964D01*
X2021634Y564934D02*
X2045574D01*
Y636753D02*
X2021634Y612813D01*
X2057543Y576904D01*
X2081483Y600843D01*
X2039589Y594859D02*
X2051558Y606828D01*
X2081483Y672662D02*
X2057543Y648723D01*
X2075498Y630768D01*
X2087468Y642738D01*
X2075498Y630768D01*
X2093453Y612813D01*
X2209800Y-6388100D02*
X2173891Y-6352191D01*
X2191846Y-6334236D01*
X2203815D01*
X2215785Y-6346206D01*
X2215785Y-6358175D01*
X2197830Y-6376130D01*
X2209800Y-6364160D02*
X2233739D01*
Y-6292342D02*
X2209800Y-6316281D01*
X2245709Y-6352191D01*
X2269649Y-6328251D01*
X2227754Y-6334236D02*
X2239724Y-6322266D01*
X2275634Y-6262417D02*
X2263664D01*
X2251694Y-6274387D01*
Y-6286357D01*
X2257679Y-6292342D01*
X2269649Y-6292341D01*
X2281619Y-6280372D01*
X2293589Y-6280372D01*
X2299573Y-6286357D01*
X2299574Y-6298326D01*
X2287604Y-6310296D01*
X2275634D01*
X2305558Y-6220523D02*
X2281619Y-6244462D01*
X2317528Y-6280372D01*
X2341468Y-6256432D01*
X2299573Y-6262417D02*
X2311543Y-6250447D01*
X2317528Y-6208553D02*
X2341468Y-6184614D01*
X2329498Y-6196583D01*
X2365407Y-6232493D01*
X2433875Y-6358175D02*
X2433876Y-6346206D01*
X2445846Y-6334236D01*
X2457815D01*
X2463800Y-6340221D01*
Y-6352190D01*
X2457815Y-6358175D01*
X2463800Y-6352190D01*
X2475770Y-6352191D01*
X2481754Y-6358175D01*
X2481755Y-6370145D01*
X2469785Y-6382115D01*
X2457815D01*
X2475770Y-6328251D02*
X2511679Y-6340221D01*
X2499709Y-6304311D01*
X2505694Y-6286357D02*
Y-6274387D01*
X2517664Y-6262417D01*
X2529634D01*
X2535619Y-6268402D01*
Y-6280372D01*
X2529634Y-6286357D01*
X2535619Y-6280372D01*
X2547589Y-6280372D01*
X2553573Y-6286357D01*
X2553574Y-6298326D01*
X2541604Y-6310296D01*
X2529634D01*
X2705830Y-6328251D02*
X2681891Y-6352191D01*
X2699845Y-6370145D01*
X2705830Y-6352191D01*
X2711815Y-6346206D01*
X2723785D01*
X2735754Y-6358175D01*
X2735755Y-6370145D01*
X2723785Y-6382115D01*
X2711815D01*
X2729770Y-6328251D02*
X2765679Y-6340221D01*
X2753709Y-6304311D01*
X2965815Y-6334236D02*
X2953846D01*
X2941876Y-6346206D01*
X2941875Y-6358175D01*
X2965815Y-6382115D01*
X2977785D01*
X2989755Y-6370145D01*
X2989754Y-6358175D01*
X2977785Y-6346206D01*
X2965815Y-6358175D01*
X3007709Y-6352191D02*
X2971800Y-6316281D01*
X3031649Y-6328251D01*
X2995740Y-6292342D01*
X3007709Y-6280372D02*
X3043619Y-6316281D01*
X3061574Y-6298326D01*
X3061573Y-6286357D01*
X3037634Y-6262417D01*
X3025664D01*
X3007709Y-6280372D01*
X3219815Y-6334236D02*
X3207846D01*
X3195876Y-6346206D01*
X3195875Y-6358175D01*
X3219815Y-6382115D01*
X3231785D01*
X3243755Y-6370145D01*
X3243754Y-6358175D01*
X3231785Y-6346206D01*
X3219815Y-6358175D01*
X3261709Y-6352191D02*
X3225800Y-6316281D01*
X3285649Y-6328251D01*
X3249740Y-6292342D01*
X3261709Y-6280372D02*
X3297619Y-6316281D01*
X3315574Y-6298326D01*
X3315573Y-6286357D01*
X3291634Y-6262417D01*
X3279664D01*
X3261709Y-6280372D01*
X3443891Y-6352191D02*
X3467830Y-6376130D01*
X3491770D01*
Y-6352191D01*
X3467830Y-6328251D01*
X3515709Y-6352191D02*
X3527679Y-6340221D01*
X3521694Y-6346206D01*
X3497755Y-6322266D01*
X3491770Y-6328251D01*
X3545634Y-6322266D02*
X3521694Y-6298326D01*
X3539649Y-6280372D01*
X3551619D01*
X3569574Y-6298326D01*
X2222500Y475161D02*
X2186591Y511070D01*
X2204546Y529025D01*
X2216515D01*
X2228485Y517055D01*
X2228485Y505085D01*
X2210530Y487130D01*
X2222500Y499100D02*
X2246439D01*
Y570919D02*
X2222500Y546979D01*
X2258409Y511070D01*
X2282349Y535010D01*
X2240454Y529025D02*
X2252424Y540995D01*
X2288334Y600843D02*
X2276364D01*
X2264394Y588874D01*
Y576904D01*
X2270379Y570919D01*
X2282349Y570919D01*
X2294319Y582889D01*
X2306289Y582889D01*
X2312273Y576904D01*
X2312274Y564934D01*
X2300304Y552964D01*
X2288334D01*
X2318258Y642738D02*
X2294319Y618798D01*
X2330228Y582889D01*
X2354168Y606828D01*
X2312273Y600843D02*
X2324243Y612813D01*
X2330228Y654707D02*
X2354168Y678647D01*
X2342198Y666677D01*
X2378107Y630768D01*
X2446575Y505085D02*
X2446576Y517055D01*
X2458546Y529025D01*
X2470515D01*
X2476500Y523040D01*
Y511070D01*
X2470515Y505085D01*
X2476500Y511070D01*
X2488470Y511070D01*
X2494454Y505085D01*
X2494455Y493115D01*
X2482485Y481146D01*
X2470515D01*
X2488470Y535010D02*
X2524379Y523040D01*
X2512409Y558949D01*
X2518394Y576904D02*
Y588874D01*
X2530364Y600843D01*
X2542334D01*
X2548319Y594858D01*
Y582889D01*
X2542334Y576904D01*
X2548319Y582889D01*
X2560289Y582889D01*
X2566273Y576904D01*
X2566274Y564934D01*
X2554304Y552964D01*
X2542334D01*
X2718530Y535010D02*
X2694591Y511070D01*
X2712545Y493115D01*
X2718530Y511070D01*
X2724515Y517055D01*
X2736485D01*
X2748454Y505085D01*
X2748455Y493115D01*
X2736485Y481146D01*
X2724515D01*
X2742470Y535010D02*
X2778379Y523040D01*
X2766409Y558949D01*
X2978515Y529025D02*
X2966546D01*
X2954576Y517055D01*
X2954575Y505085D01*
X2978515Y481146D01*
X2990485D01*
X3002455Y493115D01*
X3002454Y505085D01*
X2990485Y517055D01*
X2978515Y505085D01*
X3020409Y511070D02*
X2984500Y546979D01*
X3044349Y535010D01*
X3008440Y570919D01*
X3020409Y582889D02*
X3056319Y546979D01*
X3074274Y564934D01*
X3074273Y576904D01*
X3050334Y600843D01*
X3038364D01*
X3020409Y582889D01*
X3232515Y529025D02*
X3220546D01*
X3208576Y517055D01*
X3208575Y505085D01*
X3232515Y481146D01*
X3244485D01*
X3256455Y493115D01*
X3256454Y505085D01*
X3244485Y517055D01*
X3232515Y505085D01*
X3274409Y511070D02*
X3238500Y546979D01*
X3298349Y535010D01*
X3262439Y570919D01*
X3274409Y582889D02*
X3310319Y546979D01*
X3328274Y564934D01*
X3328273Y576904D01*
X3304334Y600843D01*
X3292364D01*
X3274409Y582889D01*
X3456591Y511070D02*
X3480530Y487130D01*
X3504470D01*
Y511070D01*
X3480530Y535010D01*
X3528409Y511070D02*
X3540379Y523040D01*
X3534394Y517055D01*
X3510455Y540995D01*
X3504470Y535010D01*
X3558334Y540995D02*
X3534394Y564934D01*
X3552349Y582889D01*
X3564319D01*
X3582274Y564934D01*
X4000500Y475161D02*
X3976561Y499100D01*
Y523040D01*
X4000500D01*
X4024440Y499100D01*
X4006485Y517055D01*
X3982545Y493115D01*
X4000500Y546979D02*
X4036409Y511070D01*
X4054364Y529025D01*
Y540995D01*
X4030424Y564934D01*
X4018455D01*
X4000500Y546979D01*
X4042394Y576904D02*
Y588874D01*
X4054364Y600843D01*
X4066334D01*
X4090273Y576904D01*
X4090274Y564934D01*
X4078304Y552964D01*
X4066334D01*
X4042394Y576904D01*
X4254500Y475161D02*
X4230560Y499100D01*
Y523040D01*
X4254500D01*
X4278440Y499100D01*
X4260485Y517055D01*
X4236545Y493115D01*
X4254500Y546979D02*
X4290409Y511070D01*
X4308364Y529025D01*
Y540995D01*
X4284424Y564934D01*
X4272455D01*
X4254500Y546979D01*
X4326319D02*
X4338289Y558949D01*
X4332304Y552964D01*
X4296394Y588874D01*
Y576904D01*
X4508500Y475161D02*
X4484560Y499100D01*
Y523040D01*
X4508500D01*
X4532439Y499100D01*
X4514485Y517055D01*
X4490545Y493115D01*
X4508500Y546979D02*
X4544409Y511070D01*
X4562364Y529025D01*
Y540995D01*
X4538424Y564934D01*
X4526455D01*
X4508500Y546979D01*
X4604258Y570919D02*
X4580319Y546979D01*
Y594858D01*
X4574334Y600843D01*
X4562364D01*
X4550394Y588874D01*
Y576904D01*
X4762500Y475161D02*
X4738560Y499100D01*
Y523040D01*
X4762500D01*
X4786439Y499100D01*
X4768485Y517055D01*
X4744545Y493115D01*
X4762500Y546979D02*
X4798409Y511070D01*
X4816364Y529025D01*
Y540995D01*
X4792424Y564934D01*
X4780455D01*
X4762500Y546979D01*
X4804394Y576904D02*
Y588874D01*
X4816364Y600843D01*
X4828334D01*
X4834319Y594858D01*
Y582889D01*
X4828334Y576904D01*
X4834319Y582889D01*
X4846289Y582889D01*
X4852273Y576904D01*
X4852274Y564934D01*
X4840304Y552964D01*
X4828334D01*
X5016500Y475161D02*
X4992560Y499100D01*
Y523040D01*
X5016500D01*
X5040439Y499100D01*
X5022485Y517055D01*
X4998545Y493115D01*
X5016500Y546979D02*
X5052409Y511070D01*
X5070364Y529025D01*
Y540995D01*
X5046424Y564934D01*
X5034455D01*
X5016500Y546979D01*
X5106274Y564934D02*
X5070364Y600843D01*
Y564934D01*
X5094304Y588874D01*
X5270500Y475161D02*
X5246560Y499100D01*
Y523040D01*
X5270500D01*
X5294439Y499100D01*
X5276485Y517055D01*
X5252545Y493115D01*
X5270500Y546979D02*
X5306409Y511070D01*
X5324364Y529025D01*
Y540995D01*
X5300424Y564934D01*
X5288455D01*
X5270500Y546979D01*
X5330349Y606828D02*
X5306409Y582889D01*
X5324364Y564934D01*
X5330349Y582889D01*
X5336334Y588874D01*
X5348304D01*
X5360273Y576904D01*
X5360274Y564934D01*
X5348304Y552964D01*
X5336334D01*
X5319109Y4822930D02*
X5307139Y4810960D01*
X5313124Y4816945D01*
X5277215Y4852854D01*
X5283200Y4858839D01*
X5271230Y4846870D01*
X5271230Y4775051D02*
X5283200Y4787021D01*
X5283200Y4798990D01*
X5259260Y4822930D01*
X5247290D01*
X5235321Y4810960D01*
Y4798990D01*
X5259260Y4775051D01*
X5271230D01*
X5247291Y4763081D02*
X5247290Y4751111D01*
X5235321Y4739141D01*
X5223351D01*
X5199411Y4763081D01*
X5199411Y4775051D01*
X5211381Y4787021D01*
X5223351D01*
X5247291Y4763081D01*
X5065109Y4822930D02*
X5053139Y4810960D01*
X5059124Y4816945D01*
X5023215Y4852854D01*
X5029200Y4858839D01*
X5017230Y4846870D01*
X5017230Y4775051D02*
X5029200Y4787021D01*
X5029200Y4798990D01*
X5005260Y4822930D01*
X4993290D01*
X4981321Y4810960D01*
Y4798990D01*
X5005260Y4775051D01*
X5017230D01*
X4963366Y4793005D02*
X4951396Y4781036D01*
X4957381Y4787021D01*
X4993290Y4751111D01*
X4993291Y4763081D01*
X4811109Y4822930D02*
X4799139Y4810960D01*
X4805124Y4816945D01*
X4769215Y4852854D01*
X4775200Y4858839D01*
X4763230Y4846870D01*
X4763230Y4775051D02*
X4775200Y4787021D01*
X4775200Y4798990D01*
X4751261Y4822930D01*
X4739290D01*
X4727321Y4810960D01*
Y4798990D01*
X4751261Y4775051D01*
X4763230D01*
X4685426Y4769066D02*
X4709366Y4793005D01*
Y4745126D01*
X4715351Y4739141D01*
X4727321D01*
X4739290Y4751111D01*
X4739291Y4763081D01*
X4557109Y4822930D02*
X4545139Y4810960D01*
X4551124Y4816945D01*
X4515215Y4852854D01*
X4521200Y4858839D01*
X4509230Y4846870D01*
X4509230Y4775051D02*
X4521200Y4787021D01*
X4521200Y4798990D01*
X4497261Y4822930D01*
X4485290D01*
X4473321Y4810960D01*
Y4798990D01*
X4497261Y4775051D01*
X4509230D01*
X4485291Y4763081D02*
X4485290Y4751111D01*
X4473321Y4739141D01*
X4461351D01*
X4455366Y4745126D01*
Y4757096D01*
X4461351Y4763081D01*
X4455366Y4757096D01*
X4443396Y4757096D01*
X4437411Y4763081D01*
X4437411Y4775051D01*
X4449381Y4787021D01*
X4461351D01*
X4413472Y4691262D02*
X4413472Y4679292D01*
X4401502Y4667323D01*
X4401502Y4655353D01*
X4303109Y4822930D02*
X4291139Y4810960D01*
X4297124Y4816945D01*
X4261215Y4852854D01*
X4267200Y4858839D01*
X4255230Y4846870D01*
X4255230Y4775051D02*
X4267200Y4787021D01*
X4267200Y4798990D01*
X4243261Y4822930D01*
X4231290D01*
X4219321Y4810960D01*
Y4798990D01*
X4243261Y4775051D01*
X4255230D01*
X4183411D02*
X4219321Y4739141D01*
Y4775051D01*
X4195381Y4751111D01*
X4049109Y4822930D02*
X4037139Y4810960D01*
X4043124Y4816945D01*
X4007215Y4852854D01*
X4013200Y4858839D01*
X4001230Y4846870D01*
X4001230Y4775051D02*
X4013200Y4787021D01*
X4013200Y4798990D01*
X3989260Y4822930D01*
X3977290D01*
X3965321Y4810960D01*
Y4798990D01*
X3989260Y4775051D01*
X4001230D01*
X3959336Y4733157D02*
X3983275Y4757096D01*
X3965321Y4775051D01*
X3959336Y4757096D01*
X3953351Y4751111D01*
X3941381D01*
X3929411Y4763081D01*
X3929411Y4775051D01*
X3941381Y4787021D01*
X3953351D01*
X3905472Y4691262D02*
X3905472Y4679292D01*
X3893502Y4667323D01*
X3893502Y4655353D01*
X3795109Y4822930D02*
X3783140Y4810960D01*
X3789124Y4816945D01*
X3753215Y4852854D01*
X3759200Y4858839D01*
X3747230Y4846870D01*
X3747230Y4775051D02*
X3759200Y4787021D01*
X3759200Y4798990D01*
X3735260Y4822930D01*
X3723290D01*
X3711321Y4810960D01*
Y4798990D01*
X3735260Y4775051D01*
X3747230D01*
X3705336Y4733157D02*
X3711321Y4751111D01*
Y4775051D01*
X3699351Y4787021D01*
X3687381D01*
X3675411Y4775051D01*
X3675411Y4763081D01*
X3681396Y4757096D01*
X3693366Y4757096D01*
X3711321Y4775051D01*
X3651472Y4691262D02*
X3651472Y4679292D01*
X3639502Y4667323D01*
X3639502Y4655353D01*
X3541109Y4822930D02*
X3529140Y4810960D01*
X3535124Y4816945D01*
X3499215Y4852854D01*
X3505200Y4858839D01*
X3493230Y4846870D01*
X3493230Y4775051D02*
X3505200Y4787021D01*
X3505200Y4798990D01*
X3481260Y4822930D01*
X3469290D01*
X3457321Y4810960D01*
Y4798990D01*
X3481260Y4775051D01*
X3493230D01*
X3475275Y4757096D02*
X3451336Y4733157D01*
X3445351Y4739141D01*
Y4787021D01*
X3439366Y4793005D01*
X3122009Y4815491D02*
X3110040Y4803521D01*
X3116024Y4809506D01*
X3080115Y4845415D01*
X3086100Y4851400D01*
X3074130Y4839430D01*
X3074130Y4767611D02*
X3086100Y4779581D01*
X3086100Y4791551D01*
X3062160Y4815490D01*
X3050190D01*
X3038221Y4803521D01*
Y4791551D01*
X3062160Y4767611D01*
X3074130D01*
X3050191Y4755641D02*
X3050190Y4743672D01*
X3038221Y4731702D01*
X3026251D01*
X3020266Y4737687D01*
Y4749656D01*
X3008296Y4749657D01*
X3002311Y4755641D01*
X3002311Y4767611D01*
X3014281Y4779581D01*
X3026251D01*
X3032236Y4773596D01*
Y4761626D01*
X3044206Y4761626D01*
X3050191Y4755641D01*
X3032236Y4761626D02*
X3020266Y4749656D01*
X2868009Y4815491D02*
X2856039Y4803521D01*
X2862024Y4809506D01*
X2826115Y4845415D01*
X2832100Y4851400D01*
X2820130Y4839430D01*
X2820130Y4767611D02*
X2832100Y4779581D01*
X2832100Y4791551D01*
X2808160Y4815490D01*
X2796190D01*
X2784221Y4803521D01*
Y4791551D01*
X2808160Y4767611D01*
X2820130D01*
X2772251Y4779581D02*
X2760281D01*
X2748311Y4767611D01*
X2748311Y4755641D01*
X2772251Y4731702D01*
X2784221D01*
X2796190Y4743672D01*
X2796191Y4755641D01*
X2790206Y4761626D01*
X2778236Y4761626D01*
X2760281Y4743672D01*
X2724372Y4683823D02*
X2724372Y4671853D01*
X2712402Y4659883D01*
X2712402Y4647913D01*
X2614009Y4815491D02*
X2602039Y4803521D01*
X2608024Y4809506D01*
X2572115Y4845415D01*
X2578100Y4851400D01*
X2566130Y4839430D01*
X2566130Y4767611D02*
X2578100Y4779581D01*
X2578100Y4791551D01*
X2554161Y4815490D01*
X2542190D01*
X2530221Y4803521D01*
Y4791551D01*
X2554161Y4767611D01*
X2566130D01*
X2512266Y4785566D02*
X2500296Y4773596D01*
X2506281Y4779581D01*
X2542190Y4743672D01*
X2542191Y4755641D01*
X2512266Y4725717D02*
Y4713747D01*
X2500296Y4701777D01*
X2488326D01*
X2464387Y4725717D01*
X2464387Y4737687D01*
X2476356Y4749656D01*
X2488326D01*
X2512266Y4725717D01*
X2440447Y4653898D02*
X2440447Y4641928D01*
X2428477Y4629959D01*
X2428478Y4617989D01*
X2360009Y4797530D02*
X2348039Y4785560D01*
X2354024Y4791545D01*
X2318115Y4827454D01*
X2324100Y4833439D01*
X2312130Y4821470D01*
X2312130Y4749651D02*
X2324100Y4761621D01*
X2324100Y4773590D01*
X2300160Y4797530D01*
X2288190D01*
X2276221Y4785560D01*
Y4773590D01*
X2300160Y4749651D01*
X2312130D01*
X2258266Y4767605D02*
X2246296Y4755636D01*
X2252281Y4761621D01*
X2288190Y4725711D01*
X2288191Y4737681D01*
X2228341D02*
X2216372Y4725711D01*
X2222356Y4731696D01*
X2258266Y4695787D01*
Y4707756D01*
X2192432Y4641922D02*
X2192432Y4629953D01*
X2180462Y4617983D01*
X2180462Y4606013D01*
X2106009Y4797530D02*
X2094039Y4785560D01*
X2100024Y4791545D01*
X2064115Y4827454D01*
X2070100Y4833439D01*
X2058130Y4821470D01*
X2058130Y4749651D02*
X2070100Y4761621D01*
X2070100Y4773590D01*
X2046160Y4797530D01*
X2034190D01*
X2022221Y4785560D01*
Y4773590D01*
X2046160Y4749651D01*
X2058130D01*
X2004266Y4767605D02*
X1992296Y4755636D01*
X1998281Y4761621D01*
X2034190Y4725711D01*
X2034191Y4737681D01*
X1950402Y4713741D02*
X1974341Y4737681D01*
Y4689802D01*
X1980326Y4683817D01*
X1992296D01*
X2004266Y4695787D01*
Y4707756D01*
X1852009Y4797530D02*
X1840039Y4785560D01*
X1846024Y4791545D01*
X1810115Y4827454D01*
X1816100Y4833439D01*
X1804130Y4821470D01*
X1804130Y4749651D02*
X1816100Y4761621D01*
X1816100Y4773590D01*
X1792160Y4797530D01*
X1780190D01*
X1768221Y4785560D01*
Y4773590D01*
X1792160Y4749651D01*
X1804130D01*
X1750266Y4767605D02*
X1738296Y4755636D01*
X1744281Y4761621D01*
X1780190Y4725711D01*
X1780191Y4737681D01*
X1750266Y4707756D02*
Y4695787D01*
X1738296Y4683817D01*
X1726326D01*
X1720341Y4689802D01*
Y4701771D01*
X1726326Y4707756D01*
X1720341Y4701771D01*
X1708372Y4701772D01*
X1702387Y4707756D01*
X1702387Y4719726D01*
X1714356Y4731696D01*
X1726326D01*
X1568085Y4779575D02*
X1580054D01*
X1592024Y4791545D01*
X1592025Y4803515D01*
X1568085Y4827454D01*
X1556115D01*
X1544145Y4815485D01*
X1544146Y4803515D01*
X1556115Y4791545D01*
X1568085Y4803515D01*
X1526191Y4797530D02*
X1562100Y4761621D01*
X1502251Y4773590D01*
X1538160Y4737681D01*
X1526191Y4725711D02*
X1490281Y4761621D01*
X1472326Y4743666D01*
X1472327Y4731696D01*
X1496266Y4707757D01*
X1508236D01*
X1526191Y4725711D01*
X1308100Y4833439D02*
X1332039Y4809500D01*
Y4785560D01*
X1308100D01*
X1284160Y4809500D01*
X1302115Y4791545D01*
X1326055Y4815485D01*
X1272191Y4797530D02*
X1308100Y4761621D01*
X1290145Y4743666D01*
X1278176D01*
X1266206Y4755636D01*
Y4767605D01*
X1284160Y4785560D01*
X1272191Y4773590D02*
X1248251D01*
Y4701772D02*
X1272191Y4725711D01*
X1236281Y4761621D01*
X1212342Y4737681D01*
X1254236Y4743666D02*
X1242266Y4731696D01*
X1212342Y4665862D02*
X1236281Y4689802D01*
X1218327Y4707757D01*
X1206357Y4695787D01*
X1218327Y4707757D01*
X1200372Y4725711D01*
%TF.MD5,12be6b4e62d9a7c3c7d508a958f261db*%
M02*
