%TF.GenerationSoftware,Altium Limited,Altium Designer,25.8.1 (18)*%
G04 Layer_Physical_Order=1*
G04 Layer_Color=255*
%FSLAX45Y45*%
%MOMM*%
%TF.SameCoordinates,FC7F72DA-8BEC-4325-B811-EE9C5DDCC207*%
%TF.FilePolarity,Positive*%
%TF.FileFunction,Copper,L1,Top,Signal*%
%TF.Part,Single*%
G01*
G75*
%TA.AperFunction,Conductor*%
%ADD10C,1.00000*%
%TA.AperFunction,ComponentPad*%
%ADD11R,2.20000X2.20000*%
%ADD12C,2.20000*%
%ADD13C,1.52400*%
%ADD14C,1.40000*%
%ADD15R,1.40000X1.40000*%
%ADD16R,1.52400X1.52400*%
%TA.AperFunction,ViaPad*%
%ADD17C,3.20000*%
%ADD18C,2.20000*%
D10*
X2832100Y3361657D02*
Y5080000D01*
Y3361657D02*
X3421757Y2772000D01*
X4071243D01*
X4749500Y3450257D01*
Y3543000D01*
X4762500Y3556000D01*
X1905000Y3429000D02*
X2578100Y4102100D01*
Y5080000D01*
X3086100Y3363630D02*
Y5080000D01*
Y3363630D02*
X3496729Y2953000D01*
X3996271D01*
X4495500Y3452230D01*
Y3543000D01*
X4508500Y3556000D01*
X3492500Y5048306D02*
Y5080000D01*
X3324500Y4880305D02*
X3492500Y5048306D01*
X3324500Y3381203D02*
Y4880305D01*
Y3381203D02*
X3571702Y3134001D01*
X3921298D01*
X4241500Y3454203D01*
Y3543000D01*
X4254500Y3556000D01*
X3746500Y4367372D02*
Y5080000D01*
X3505500Y4126371D02*
X3746500Y4367372D01*
X3505500Y3456176D02*
Y4126371D01*
Y3456176D02*
X3646675Y3315001D01*
X3846325D01*
X3987499Y3456175D01*
Y3542999D01*
X4000500Y3556000D01*
X2070100Y4488156D02*
Y5080000D01*
X818998Y3237053D02*
X2070100Y4488156D01*
X818998Y2415738D02*
Y3237053D01*
Y2415738D02*
X2028235Y1206500D01*
X3937000D01*
X1704000Y3304738D02*
Y3866083D01*
X2324100Y4486183D01*
Y5080000D01*
X1704000Y3224002D02*
Y3304738D01*
X1019998Y2540000D02*
X1704000Y3224002D01*
Y3304738D02*
X3484738Y1524000D01*
X5016500D01*
X2730500Y254000D02*
Y286472D01*
X2777300Y333271D01*
Y339825D01*
X3357907Y920432D01*
X4793932D01*
X5397500Y1524000D01*
X4762500Y3810000D02*
Y5080000D01*
X4508500Y3810000D02*
Y5080000D01*
X4254500Y3810000D02*
Y5080000D01*
X4000500Y3810000D02*
Y5080000D01*
X3429000Y1905000D02*
X5016500D01*
X1905000Y3429000D02*
X3429000Y1905000D01*
X3523473Y2191527D02*
Y2310526D01*
X2404999Y3429000D02*
X3523473Y2310526D01*
Y2191527D02*
X3556000Y2159000D01*
D11*
X3746500Y3810000D02*
D03*
D12*
X4000500D02*
D03*
X4254500D02*
D03*
X4508500D02*
D03*
X4762500D02*
D03*
Y3556000D02*
D03*
X4508500D02*
D03*
X4254500D02*
D03*
X4000500D02*
D03*
X3746500D02*
D03*
X3086100Y5080000D02*
D03*
X2832100D02*
D03*
X2578100D02*
D03*
X2324100D02*
D03*
X2070100D02*
D03*
X1562100D02*
D03*
X4508500D02*
D03*
X4254500D02*
D03*
X4000500D02*
D03*
X3746500D02*
D03*
X3492500D02*
D03*
X4762500D02*
D03*
X2730500Y254000D02*
D03*
X3238500D02*
D03*
D13*
X1816100Y5080000D02*
D03*
X1308100D02*
D03*
X1054100D02*
D03*
X800100D02*
D03*
X4254500Y254000D02*
D03*
X4508500D02*
D03*
X4762500D02*
D03*
X5016500D02*
D03*
X5270500D02*
D03*
X5016500Y5080000D02*
D03*
X2476500Y254000D02*
D03*
X2222500D02*
D03*
X1968500D02*
D03*
X1714500D02*
D03*
X2984500D02*
D03*
D14*
X2404999Y3429000D02*
D03*
X1520002Y2540000D02*
D03*
D15*
X1905000Y3429000D02*
D03*
X1019998Y2540000D02*
D03*
D16*
X4000500Y254000D02*
D03*
X5270500Y5080000D02*
D03*
X3492500Y254000D02*
D03*
D17*
X444500Y5080000D02*
D03*
X317500Y254000D02*
D03*
X5524500Y3556000D02*
D03*
Y762000D02*
D03*
D18*
X5397500Y1905000D02*
D03*
X3937000Y1206500D02*
D03*
X5397500Y1143000D02*
D03*
X5016500Y1524000D02*
D03*
X3556000Y2159000D02*
D03*
X5016500Y1905000D02*
D03*
X5397500Y1524000D02*
D03*
%TF.MD5,87f85b36602405b4e2e51c4517adf3fb*%
M02*
