%TF.GenerationSoftware,Altium Limited,Altium Designer,25.8.1 (18)*%
G04 Layer_Color=0*
%FSLAX45Y45*%
%MOMM*%
%TF.SameCoordinates,FC7F72DA-8BEC-4325-B811-EE9C5DDCC207*%
%TF.FilePolarity,Positive*%
%TF.FileFunction,Plated,1,2,PTH,Drill*%
%TF.Part,Single*%
G01*
G75*
%TA.AperFunction,ComponentDrill*%
%ADD34C,1.50000*%
%ADD35C,0.81000*%
%ADD36C,0.90000*%
%TA.AperFunction,OtherDrill,Pad Free-0 (4.445mm,50.8mm)*%
%ADD37C,3.20000*%
%TA.AperFunction,OtherDrill,Pad Free-0 (3.175mm,2.54mm)*%
%ADD38C,3.20000*%
%TA.AperFunction,OtherDrill,Pad Free-0 (55.245mm,35.56mm)*%
%ADD39C,3.20000*%
%TA.AperFunction,OtherDrill,Pad Free-0 (55.245mm,7.62mm)*%
%ADD40C,3.20000*%
%TA.AperFunction,ViaDrill,NotFilled*%
%ADD41C,1.50000*%
D34*
X3746500Y3810000D02*
D03*
X4000500D02*
D03*
X4254500D02*
D03*
X4508500D02*
D03*
X4762500D02*
D03*
Y3556000D02*
D03*
X4508500D02*
D03*
X4254500D02*
D03*
X4000500D02*
D03*
X3746500D02*
D03*
X3086100Y5080000D02*
D03*
X2832100D02*
D03*
X2578100D02*
D03*
X2324100D02*
D03*
X2070100D02*
D03*
X1562100D02*
D03*
X4508500D02*
D03*
X4254500D02*
D03*
X4000500D02*
D03*
X3746500D02*
D03*
X3492500D02*
D03*
X4762500D02*
D03*
X2730500Y254000D02*
D03*
X3238500D02*
D03*
D35*
X1816100Y5080000D02*
D03*
X1308100D02*
D03*
X1054100D02*
D03*
X800100D02*
D03*
X4000500Y254000D02*
D03*
X4254500D02*
D03*
X4508500D02*
D03*
X4762500D02*
D03*
X5016500D02*
D03*
X5270500D02*
D03*
Y5080000D02*
D03*
X5016500D02*
D03*
X3492500Y254000D02*
D03*
X2476500D02*
D03*
X2222500D02*
D03*
X1968500D02*
D03*
X1714500D02*
D03*
X2984500D02*
D03*
D36*
X2404999Y3429000D02*
D03*
X1905000D02*
D03*
X1520002Y2540000D02*
D03*
X1019998D02*
D03*
D37*
X444500Y5080000D02*
D03*
D38*
X317500Y254000D02*
D03*
D39*
X5524500Y3556000D02*
D03*
D40*
Y762000D02*
D03*
D41*
X5397500Y1905000D02*
D03*
X3937000Y1206500D02*
D03*
X5397500Y1143000D02*
D03*
X5016500Y1524000D02*
D03*
X3556000Y2159000D02*
D03*
X5016500Y1905000D02*
D03*
X5397500Y1524000D02*
D03*
%TF.MD5,75d4f58a497fddb08ddc13787af1d3c7*%
M02*
