%TF.GenerationSoftware,Altium Limited,Altium Designer,26.5.1 (12)*%
G04 Layer_Physical_Order=1*
G04 Layer_Color=255*
G04 Board_Origin=0|0*
%FSLAX45Y45*%
%MOMM*%
%TF.SameCoordinates,6FC9F6E1-41C6-43C5-A5FF-3E8B316A3495*%
%TF.FilePolarity,Positive*%
%TF.FileFunction,Copper,L1,Top,Signal*%
%TF.Part,Single*%
G01*
G75*
%TA.AperFunction,Conductor*%
%ADD10C,0.80000*%
%TA.AperFunction,ViaPad*%
%ADD11C,1.52400*%
%TA.AperFunction,ComponentPad*%
%ADD12O,1.77800X2.79700*%
%ADD13O,2.03200X1.55000*%
%ADD14C,1.53000*%
%ADD15R,1.75000X2.30000*%
%ADD16C,1.39000*%
%ADD17O,1.75000X2.30000*%
%ADD18R,1.39000X1.39000*%
%ADD19C,2.42000*%
%ADD20C,3.25000*%
%ADD21R,2.03200X1.55000*%
%ADD22R,1.53000X1.53000*%
%TA.AperFunction,ViaPad*%
%ADD23C,2.20000*%
D10*
X10146870Y9588500D02*
X10504300Y9231070D01*
Y8030176D02*
Y9231070D01*
X9588500Y7114376D02*
X10504300Y8030176D01*
X9588500Y6413500D02*
Y7114376D01*
X8953500Y9588500D02*
X10146870D01*
X11175570Y10617200D01*
X11861800D01*
X8723500Y9683769D02*
X8751550Y9711820D01*
X9564500Y9358500D02*
X9676006Y9246994D01*
X8563500Y9426957D02*
Y9750043D01*
X8591550Y9778094D01*
Y9798050D01*
X8563500Y9426957D02*
X8591550Y9398906D01*
X8723500Y9493231D02*
X8858231Y9358500D01*
X8723500Y9493231D02*
Y9683769D01*
X8591550Y6711950D02*
Y9398906D01*
X8858231Y9358500D02*
X9564500D01*
X8530515Y10321215D02*
X8751550Y10100180D01*
Y9711820D02*
Y10100180D01*
X9676006Y9196194D02*
Y9246994D01*
Y9196194D02*
X10274300Y8597900D01*
X10782300Y10782300D02*
X11015401D01*
X8907631Y10248900D02*
X10248900D01*
X10782300Y10782300D01*
X8591550Y6711950D02*
X8928100Y6375400D01*
X8255000Y10134600D02*
X8591550Y9798050D01*
X8748900Y10407631D02*
X8907631Y10248900D01*
X8610600Y10566400D02*
X8748900Y10428100D01*
Y10407631D02*
Y10428100D01*
X8610600Y10566400D02*
Y11214100D01*
D11*
X10800000Y5700000D02*
D03*
X7900000Y6200000D02*
D03*
X6100000Y11100000D02*
D03*
X11900000D02*
D03*
D12*
X12128500Y10198100D02*
D03*
X11874500D02*
D03*
X11620500D02*
D03*
X11366500D02*
D03*
D13*
X9067800Y11074400D02*
D03*
X9829800Y10820400D02*
D03*
X9575800D02*
D03*
X9321800D02*
D03*
X9067800D02*
D03*
X9321800Y11074400D02*
D03*
X9575800D02*
D03*
X9829800D02*
D03*
X10083800D02*
D03*
D14*
X10833100Y6159500D02*
D03*
X8293100Y9461500D02*
D03*
Y6159500D02*
D03*
Y6413500D02*
D03*
Y6667500D02*
D03*
Y6921500D02*
D03*
Y7175500D02*
D03*
Y7429500D02*
D03*
Y7683500D02*
D03*
Y7937500D02*
D03*
Y8191500D02*
D03*
Y8445500D02*
D03*
Y8699500D02*
D03*
Y8953500D02*
D03*
Y9207500D02*
D03*
X10833100Y8699500D02*
D03*
Y8953500D02*
D03*
Y9207500D02*
D03*
Y9715500D02*
D03*
Y9461500D02*
D03*
Y6667500D02*
D03*
Y6921500D02*
D03*
Y7175500D02*
D03*
Y7429500D02*
D03*
Y7683500D02*
D03*
Y7937500D02*
D03*
Y8191500D02*
D03*
Y8445500D02*
D03*
Y6413500D02*
D03*
D15*
X7454900Y11239500D02*
D03*
Y10731500D02*
D03*
D16*
X6350000Y9728200D02*
D03*
X6554000D02*
D03*
X6452000Y9906200D02*
D03*
X6248000D02*
D03*
X6656000D02*
D03*
X6860000D02*
D03*
X6758000Y9728200D02*
D03*
D17*
X7962900Y11239500D02*
D03*
X8216900D02*
D03*
X7962900Y10731500D02*
D03*
X8216900D02*
D03*
X7708900D02*
D03*
Y11239500D02*
D03*
D18*
X6962000Y9728200D02*
D03*
D19*
X7417000Y9817200D02*
D03*
X5791000D02*
D03*
D20*
X7239000Y9474200D02*
D03*
X5969000D02*
D03*
D21*
X10083800Y10820400D02*
D03*
D22*
X8293100Y9715500D02*
D03*
D23*
X9588500Y6413500D02*
D03*
X10274300Y8597900D02*
D03*
X8953500Y9588500D02*
D03*
X11015401Y10782300D02*
D03*
X8530515Y10321215D02*
D03*
X11861800Y10617200D02*
D03*
X8610600Y11214100D02*
D03*
X8928100Y6375400D02*
D03*
X8255000Y10134600D02*
D03*
%TF.MD5,e4c69a48f5454398aa71351d2a73d81e*%
M02*
