%TF.GenerationSoftware,Altium Limited,Altium Designer,26.5.1 (12)*%
G04 Layer_Physical_Order=2*
G04 Layer_Color=16711680*
G04 Board_Origin=0|0*
%FSLAX45Y45*%
%MOMM*%
%TF.SameCoordinates,6FC9F6E1-41C6-43C5-A5FF-3E8B316A3495*%
%TF.FilePolarity,Positive*%
%TF.FileFunction,Copper,L2,Bot,Signal*%
%TF.Part,Single*%
G01*
G75*
%TA.AperFunction,Conductor*%
%ADD10C,0.80000*%
%TA.AperFunction,ViaPad*%
%ADD11C,1.52400*%
%TA.AperFunction,ComponentPad*%
%ADD12O,1.77800X2.79700*%
%ADD13O,2.03200X1.55000*%
%ADD14C,1.53000*%
%ADD15R,1.75000X2.30000*%
%ADD16C,1.39000*%
%ADD17O,1.75000X2.30000*%
%ADD18R,1.39000X1.39000*%
%ADD19C,2.42000*%
%ADD20C,3.25000*%
%ADD21R,2.03200X1.55000*%
%ADD22R,1.53000X1.53000*%
%TA.AperFunction,ViaPad*%
%ADD23C,2.20000*%
%TA.AperFunction,Conductor*%
%ADD24C,1.00000*%
D10*
X9588500Y6413500D02*
X10833100D01*
X9396600Y6605400D02*
X9588500Y6413500D01*
X8764062Y6605400D02*
X9396600D01*
X8572161Y6413500D02*
X8764062Y6605400D01*
X8293100Y6413500D02*
X8572161D01*
X10791197Y8685532D02*
X10819132D01*
X10274300Y8597900D02*
X10703565D01*
X10819132Y8685532D02*
X10833100Y8699500D01*
X10703565Y8597900D02*
X10791197Y8685532D01*
X9980800Y8396100D02*
X10171432Y8205468D01*
X9980800Y8396100D02*
Y8807469D01*
X10171432Y8205468D02*
X10819132D01*
X9820800Y8149701D02*
X10290391Y7680109D01*
X10829709D01*
X9820800Y8149701D02*
Y8873743D01*
X9660799Y7992201D02*
X10209532Y7443468D01*
X9660799Y7992201D02*
Y8940017D01*
X10209532Y7443468D02*
X10819132D01*
X9500799Y7851306D02*
Y9006292D01*
X8825346Y9009662D02*
X9276199Y9460514D01*
X9180799Y9138840D02*
X9436199Y9394240D01*
X10076200Y9129144D02*
Y9462767D01*
X9436199Y9394240D02*
Y9727864D01*
X9340799Y9072566D02*
X9596199Y9327966D01*
Y9661590D01*
X8374493Y8249000D02*
X8825346Y8699853D01*
X8370353Y8249000D02*
X8374493D01*
X9756199Y9261692D02*
Y9595316D01*
X10236200Y9062869D02*
Y9396493D01*
X8312854Y8191500D02*
X8370353Y8249000D01*
X8293100Y8191500D02*
X8312854D01*
X9500799Y9006292D02*
X9756199Y9261692D01*
X9660799Y8940017D02*
X9916200Y9195418D01*
X8330961Y7443468D02*
X9180799Y8293305D01*
X9276199Y9460514D02*
Y9945429D01*
X9340799Y8199306D02*
Y9072566D01*
X8825346Y8699853D02*
Y9009662D01*
X9180799Y8293305D02*
Y9138840D01*
X9980800Y8807469D02*
X10236200Y9062869D01*
X8330961Y6681468D02*
X9500799Y7851306D01*
X9916200Y9195418D02*
Y9529042D01*
X9820800Y8873743D02*
X10076200Y9129144D01*
X8330961Y7189468D02*
X9340799Y8199306D01*
X9276199Y9945429D02*
X9321800Y9991031D01*
X8953500Y9588500D02*
Y10515384D01*
X10465400Y9851968D02*
Y11013879D01*
X10367654Y11337901D02*
X10625401Y11080154D01*
Y10565456D02*
Y11080154D01*
X10439631Y11039649D02*
Y11039649D01*
X11215488Y10400062D02*
Y10582214D01*
X10439631Y11039649D02*
X10465400Y11013879D01*
X10433928Y11497901D02*
X10785401Y11146428D01*
X11029600Y9634107D02*
Y10387530D01*
X10301380Y11177900D02*
X10439631Y11039649D01*
X10305400Y9918242D02*
Y10947605D01*
X10785401Y10631730D02*
X11029600Y10387530D01*
X10792500Y9952793D02*
Y10398357D01*
X9916200Y9529042D02*
X10305400Y9918242D01*
X10235106Y11017900D02*
X10305400Y10947605D01*
X11015401Y10782300D02*
X11215488Y10582214D01*
X10785401Y10631730D02*
Y11146428D01*
X10625401Y10565456D02*
X10792500Y10398357D01*
X10076200Y9462767D02*
X10465400Y9851968D01*
X10236200Y9396493D02*
X10792500Y9952793D01*
X11215488Y10400062D02*
X11366500Y10249050D01*
X8953500Y10515384D02*
X9061016Y10622900D01*
Y10813616D01*
X9067800Y10820400D01*
X9321800Y9991031D02*
Y10820400D01*
X9756199Y9595316D02*
X10083800Y9922916D01*
X9596199Y9661590D02*
X9829800Y9895191D01*
X9436199Y9727864D02*
X9575800Y9867465D01*
X8374181Y10490150D02*
Y10546719D01*
Y10490150D02*
X8530515Y10333816D01*
X8216900Y10704000D02*
X8374181Y10546719D01*
X8530515Y10321215D02*
Y10333816D01*
X8448950Y10820400D02*
X9067800D01*
X7708900Y10985500D02*
X8283850D01*
X8448950Y10820400D01*
X7708900Y10985500D02*
Y11239500D01*
X11861800Y10617200D02*
X11868150Y10610850D01*
Y10204450D02*
Y10610850D01*
Y10204450D02*
X11874500Y10198100D01*
X12128500D01*
X10914493Y9519000D02*
X11029600Y9634107D01*
X11189600Y9891387D02*
X11236463Y9938250D01*
X11189600Y9567833D02*
Y9891387D01*
X11039600Y9417833D02*
X11189600Y9567833D01*
X11236463Y9938250D02*
X11453029D01*
X11039600Y9167779D02*
Y9417833D01*
X11453029Y9938250D02*
X11575400Y10060621D01*
Y10075586D01*
X11620500Y10120686D01*
Y10198100D01*
X10408716Y11751901D02*
X11620500Y10540116D01*
Y10198100D02*
Y10540116D01*
X11366500Y10198100D02*
Y10249050D01*
X10833100Y9461500D02*
X10852854D01*
X10910353Y9519000D01*
X10914493D01*
X9737203Y11751901D02*
X10408716D01*
X9067800Y11074400D02*
Y11123807D01*
X9225893Y11281900D01*
X8211707Y7741000D02*
X8215847D01*
X8273346Y7683500D01*
X7936600Y8016107D02*
Y8325560D01*
X8273346Y7683500D02*
X8293100D01*
X7936600Y8016107D02*
X8211707Y7741000D01*
X7776600Y8485559D02*
X7936600Y8325560D01*
X7936601Y8551833D02*
X8096601Y8391833D01*
Y8272894D02*
Y8391833D01*
X8215847Y7995000D02*
X8273346Y7937500D01*
X8096600Y8272893D02*
X8096601Y8272894D01*
X8096600Y8110107D02*
Y8272893D01*
X8211707Y7995000D02*
X8215847D01*
X8096600Y8110107D02*
X8211707Y7995000D01*
X7055711Y9031699D02*
X7796012D01*
X7936601Y8551833D02*
Y8891110D01*
X7729737Y8871699D02*
X7776600Y8824836D01*
Y8485559D02*
Y8824836D01*
X8096601Y8618107D02*
Y8957385D01*
X7121985Y9191700D02*
X7862286D01*
X8096601Y8618107D02*
X8211708Y8503000D01*
X8215847D01*
X7796012Y9031699D02*
X7936601Y8891110D01*
X7862286Y9191700D02*
X8096601Y8957385D01*
X8215847Y8503000D02*
X8273346Y8445500D01*
X6989436Y8871699D02*
X7729737D01*
X8273346Y8445500D02*
X8293100D01*
X6554000Y9307136D02*
X6989436Y8871699D01*
X6554000Y9307136D02*
Y9728200D01*
X8273346Y7937500D02*
X8293100D01*
X6758000Y9329410D02*
X7055711Y9031699D01*
X6758000Y9329410D02*
Y9728200D01*
X6956500Y9357185D02*
X7121985Y9191700D01*
X6956500Y9357185D02*
Y9722700D01*
X6962000Y9728200D01*
X6334035D02*
X6350000D01*
X6322535Y9716700D02*
X6334035Y9728200D01*
X6128936Y9716700D02*
X6322535D01*
X6032000Y9813636D02*
X6128936Y9716700D01*
X5794564Y9813636D02*
X6032000D01*
X5791000Y9817200D02*
X5794564Y9813636D01*
X8198723Y11257677D02*
X8216900Y11239500D01*
X8198723Y11257677D02*
Y11324627D01*
X7888849Y11634500D02*
X8198723Y11324627D01*
X7251420Y11634500D02*
X7888849D01*
X6248000Y10631080D02*
X7251420Y11634500D01*
X6248000Y9906200D02*
Y10631080D01*
X6452000Y9906200D02*
Y10608806D01*
X7317695Y11474500D01*
X7794849D01*
X6656000Y9906200D02*
Y10304806D01*
X7317695Y10966500D01*
X7385100D01*
X7454900Y11036300D01*
Y11239500D01*
X7794849Y11474500D02*
X7916400Y11352949D01*
Y11339206D02*
Y11352949D01*
Y11339206D02*
X7962900Y11292707D01*
Y11239500D02*
Y11292707D01*
X8216900Y11239500D02*
X8229600Y11226800D01*
X8597900D01*
X8610600Y11214100D01*
X8216900Y10704000D02*
Y10731500D01*
X10829709Y7680109D02*
X10833100Y7683500D01*
X9829800Y9895191D02*
Y10820400D01*
X9575800Y9867465D02*
Y10820400D01*
X10083800Y9922916D02*
Y10820400D01*
X8712200Y6159500D02*
X8928100Y6375400D01*
X8293100Y6159500D02*
X8712200D01*
X7962900Y10426700D02*
X8255000Y10134600D01*
X7962900Y10426700D02*
Y10731500D01*
X7417000Y9817200D02*
X7708900Y10109100D01*
Y10731500D01*
X6845500Y9944100D02*
Y10094600D01*
X7454900Y10704000D01*
Y10731500D01*
X7708900D02*
Y10985500D01*
X10422299Y11497901D02*
X10433928D01*
X10328299Y11591901D02*
X10422299Y11497901D01*
X9817619Y11591901D02*
X10328299D01*
X9497619Y11271900D02*
X9817619Y11591901D01*
X9469893Y11271900D02*
X9497619D01*
X9354200Y11156207D02*
X9469893Y11271900D01*
X9354200Y11106800D02*
Y11156207D01*
X9321800Y11074400D02*
X9354200Y11106800D01*
X9977893Y11271900D02*
X10195751D01*
X9883893Y11431900D02*
X10262025D01*
X9608200Y11156207D02*
X9883893Y11431900D01*
X10195751Y11271900D02*
X10289751Y11177900D01*
X10262025Y11431900D02*
X10356025Y11337901D01*
X10289751Y11177900D02*
X10301380D01*
X10356025Y11337901D02*
X10367654D01*
X10184695Y11017900D02*
X10235106D01*
X9862200Y11156207D02*
X9977893Y11271900D01*
X10819132Y8205468D02*
X10833100Y8191500D01*
X9608200Y11106800D02*
Y11156207D01*
X9575800Y11074400D02*
X9608200Y11106800D01*
X8293100Y6667500D02*
X8307068Y6681468D01*
X8330961D01*
X8293100Y7175500D02*
X8307068Y7189468D01*
X8330961D01*
X9862200Y11106800D02*
Y11156207D01*
X9829800Y11074400D02*
X9862200Y11106800D01*
X10819132Y7443468D02*
X10833100Y7429500D01*
X10128195Y11074400D02*
X10184695Y11017900D01*
X10083800Y11074400D02*
X10128195D01*
X8293100Y7429500D02*
X8307068Y7443468D01*
X8330961D01*
D11*
X10800000Y5700000D02*
D03*
X7900000Y6200000D02*
D03*
X6100000Y11100000D02*
D03*
X11900000D02*
D03*
D12*
X12128500Y10198100D02*
D03*
X11874500D02*
D03*
X11620500D02*
D03*
X11366500D02*
D03*
D13*
X9067800Y11074400D02*
D03*
X9829800Y10820400D02*
D03*
X9575800D02*
D03*
X9321800D02*
D03*
X9067800D02*
D03*
X9321800Y11074400D02*
D03*
X9575800D02*
D03*
X9829800D02*
D03*
X10083800D02*
D03*
D14*
X10833100Y6159500D02*
D03*
X8293100Y9461500D02*
D03*
Y6159500D02*
D03*
Y6413500D02*
D03*
Y6667500D02*
D03*
Y6921500D02*
D03*
Y7175500D02*
D03*
Y7429500D02*
D03*
Y7683500D02*
D03*
Y7937500D02*
D03*
Y8191500D02*
D03*
Y8445500D02*
D03*
Y8699500D02*
D03*
Y8953500D02*
D03*
Y9207500D02*
D03*
X10833100Y8699500D02*
D03*
Y8953500D02*
D03*
Y9207500D02*
D03*
Y9715500D02*
D03*
Y9461500D02*
D03*
Y6667500D02*
D03*
Y6921500D02*
D03*
Y7175500D02*
D03*
Y7429500D02*
D03*
Y7683500D02*
D03*
Y7937500D02*
D03*
Y8191500D02*
D03*
Y8445500D02*
D03*
Y6413500D02*
D03*
D15*
X7454900Y11239500D02*
D03*
Y10731500D02*
D03*
D16*
X6350000Y9728200D02*
D03*
X6554000D02*
D03*
X6452000Y9906200D02*
D03*
X6248000D02*
D03*
X6656000D02*
D03*
X6860000D02*
D03*
X6758000Y9728200D02*
D03*
D17*
X7962900Y11239500D02*
D03*
X8216900D02*
D03*
X7962900Y10731500D02*
D03*
X8216900D02*
D03*
X7708900D02*
D03*
Y11239500D02*
D03*
D18*
X6962000Y9728200D02*
D03*
D19*
X7417000Y9817200D02*
D03*
X5791000D02*
D03*
D20*
X7239000Y9474200D02*
D03*
X5969000D02*
D03*
D21*
X10083800Y10820400D02*
D03*
D22*
X8293100Y9715500D02*
D03*
D23*
X9588500Y6413500D02*
D03*
X10274300Y8597900D02*
D03*
X8953500Y9588500D02*
D03*
X11015401Y10782300D02*
D03*
X8530515Y10321215D02*
D03*
X11861800Y10617200D02*
D03*
X8610600Y11214100D02*
D03*
X8928100Y6375400D02*
D03*
X8255000Y10134600D02*
D03*
D24*
X11039600Y6248079D02*
Y9167779D01*
X9695893Y11751901D02*
X9737203D01*
X10843100Y6169500D02*
X10961022D01*
X10833100Y6159500D02*
X10843100Y6169500D01*
X9225893Y11281900D02*
X9695893Y11751901D01*
X10961022Y6169500D02*
X11039600Y6248079D01*
%TF.MD5,eb5ea9faea4ccb80107f54b234cb8c41*%
M02*
