%TF.GenerationSoftware,Altium Limited,Altium Designer,26.5.1 (12)*%
G04 Layer_Color=65535*
G04 Board_Origin=0|0*
%FSLAX45Y45*%
%MOMM*%
%TF.SameCoordinates,53A2190E-3553-45D8-A606-77E32103BD55*%
%TF.FilePolarity,Positive*%
%TF.FileFunction,Legend,Top*%
%TF.Part,Single*%
G01*
G75*
%TA.AperFunction,NonConductor*%
%ADD25C,0.20000*%
%ADD26C,0.25000*%
%ADD27C,0.12700*%
%ADD28C,0.25400*%
D25*
X12301500Y10368100D02*
G03*
X12301500Y10368100I-20000J0D01*
G01*
X8226900Y10121900D02*
G03*
X8226900Y10121900I-10000J0D01*
G01*
X11217500Y10068100D02*
Y10338100D01*
X12277500Y10068100D02*
Y10338100D01*
X11217500Y10068100D02*
X12277500D01*
X11217500Y10338100D02*
X12277500D01*
X7364900Y10641500D02*
Y10821500D01*
Y10641500D02*
X8305800D01*
Y10821500D01*
X7364900D02*
X8305800D01*
X7364900Y11149500D02*
Y11329500D01*
Y11149500D02*
X8305800D01*
Y11329500D01*
X7364900D02*
X8305800D01*
X5634500Y9975700D02*
Y10533700D01*
Y8933700D02*
Y9658700D01*
Y8933700D02*
X7573500D01*
Y9975700D02*
Y10533700D01*
Y8933700D02*
Y9658700D01*
X5634500Y10533700D02*
X7573500D01*
X8940800Y11226400D02*
X10210800D01*
X8940800Y11480400D02*
X10210800D01*
X8940800Y11226400D02*
Y11480400D01*
X10210800Y11226400D02*
Y11480400D01*
D26*
X7646000Y9728200D02*
G03*
X7646000Y9728200I-12500J0D01*
G01*
X10096300Y10687900D02*
G03*
X10096300Y10687900I-12500J0D01*
G01*
D27*
X8293100Y5181600D02*
X10833100D01*
X8293100Y10325100D02*
X10833100D01*
X8293100Y5181600D02*
Y10325100D01*
X10833100Y5181600D02*
Y10325100D01*
D28*
X10953799Y10184097D02*
Y10133313D01*
Y10158705D01*
X11080758D01*
X11106150Y10133313D01*
Y10107922D01*
X11080758Y10082530D01*
X11131542Y10234881D02*
Y10336448D01*
X10953799Y10387231D02*
X11106150D01*
Y10463407D01*
X11080758Y10488799D01*
X11055367D01*
X11029975D01*
X11004583Y10463407D01*
Y10387231D01*
Y10539582D02*
X11080758D01*
X11106150Y10564974D01*
Y10641149D01*
X11004583D01*
X10979191Y10717325D02*
X11004583D01*
Y10691933D01*
Y10742716D01*
Y10717325D01*
X11080758D01*
X11106150Y10742716D01*
X10979191Y10844284D02*
X11004583D01*
Y10818892D01*
Y10869675D01*
Y10844284D01*
X11080758D01*
X11106150Y10869675D01*
Y10971242D02*
Y11022026D01*
X11080758Y11047418D01*
X11029975D01*
X11004583Y11022026D01*
Y10971242D01*
X11029975Y10945851D01*
X11080758D01*
X11106150Y10971242D01*
Y11098201D02*
X11004583D01*
Y11174377D01*
X11029975Y11199769D01*
X11106150D01*
X8543241Y10704863D02*
Y10806430D01*
X8390890D01*
Y10704863D01*
X8467065Y10806430D02*
Y10755647D01*
X8492457Y10654079D02*
X8390890Y10552512D01*
X8441673Y10603296D01*
X8492457Y10552512D01*
X8390890Y10654079D01*
X8517849Y10476337D02*
X8492457D01*
Y10501729D01*
Y10450945D01*
Y10476337D01*
X8416282D01*
X8390890Y10450945D01*
X8492457Y10374770D02*
X8390890D01*
X8441673D01*
X8467065Y10349378D01*
X8492457Y10323986D01*
Y10298594D01*
Y10197027D02*
Y10146244D01*
X8467065Y10120852D01*
X8390890D01*
Y10197027D01*
X8416282Y10222419D01*
X8441673Y10197027D01*
Y10120852D01*
X8517857Y11212863D02*
Y11289038D01*
X8492465Y11314430D01*
X8441682D01*
X8416290Y11289038D01*
Y11212863D01*
Y11136687D02*
Y11085904D01*
X8441682Y11060512D01*
X8492465D01*
X8517857Y11085904D01*
Y11136687D01*
X8492465Y11162079D01*
X8441682D01*
X8416290Y11136687D01*
Y11009729D02*
X8517857D01*
Y10933553D01*
X8492465Y10908161D01*
X8416290D01*
Y10831986D02*
X8543249D01*
X8492465D01*
Y10857378D01*
Y10806594D01*
Y10831986D01*
X8543249D01*
X8568641Y10806594D01*
X8416290Y10730419D02*
Y10679635D01*
Y10705027D01*
X8517857D01*
Y10730419D01*
Y10603460D02*
X8416290D01*
X8467073D01*
X8492465Y10578068D01*
X8517857Y10552677D01*
Y10527285D01*
X8416290Y10451109D02*
X8517857D01*
Y10425718D01*
X8492465Y10400326D01*
X8416290D01*
X8492465D01*
X8517857Y10374934D01*
X8492465Y10349542D01*
X8416290D01*
X8390898Y10298759D02*
Y10197191D01*
X8517857Y10044841D02*
Y10121016D01*
X8492465Y10146408D01*
X8441682D01*
X8416290Y10121016D01*
Y10044841D01*
Y9968665D02*
Y9917882D01*
X8441682Y9892490D01*
X8492465D01*
X8517857Y9917882D01*
Y9968665D01*
X8492465Y9994057D01*
X8441682D01*
X8416290Y9968665D01*
Y9841707D02*
X8517857D01*
Y9765531D01*
X8492465Y9740139D01*
X8416290D01*
Y9689356D02*
X8517857D01*
Y9613180D01*
X8492465Y9587789D01*
X8416290D01*
Y9460830D02*
Y9511613D01*
X8441682Y9537005D01*
X8492465D01*
X8517857Y9511613D01*
Y9460830D01*
X8492465Y9435438D01*
X8467073D01*
Y9537005D01*
X8517857Y9283087D02*
Y9359262D01*
X8492465Y9384654D01*
X8441682D01*
X8416290Y9359262D01*
Y9283087D01*
X8543249Y9206912D02*
X8517857D01*
Y9232304D01*
Y9181520D01*
Y9206912D01*
X8441682D01*
X8416290Y9181520D01*
X7887921Y10425883D02*
Y10527450D01*
X7735570D01*
Y10425883D01*
X7811745Y10527450D02*
Y10476667D01*
X7887921Y10375099D02*
Y10273532D01*
Y10324316D01*
X7735570D01*
X7887921Y10222749D02*
X7735570D01*
X7811745D01*
Y10121181D01*
X7887921D01*
X7735570D01*
X7887921Y9968831D02*
Y10070398D01*
X7735570D01*
Y9968831D01*
X7811745Y10070398D02*
Y10019614D01*
X7735570Y9918047D02*
X7887921D01*
Y9841872D01*
X7862529Y9816480D01*
X7811745D01*
X7786353Y9841872D01*
Y9918047D01*
Y9867264D02*
X7735570Y9816480D01*
Y9765696D02*
X7887921D01*
X7735570Y9664129D01*
X7887921D01*
Y9511779D02*
Y9613346D01*
X7735570D01*
Y9511779D01*
X7811745Y9613346D02*
Y9562562D01*
X7887921Y9460995D02*
Y9359428D01*
Y9410212D01*
X7735570D01*
X10196830Y10585433D02*
X10171438D01*
X10146047Y10560042D01*
Y10433083D01*
X10019087Y10534650D02*
X9968304D01*
X9942912Y10509258D01*
Y10458475D01*
X9968304Y10433083D01*
X10019087D01*
X10044479Y10458475D01*
Y10509258D01*
X10019087Y10534650D01*
X9892129Y10433083D02*
Y10509258D01*
X9866737Y10534650D01*
X9790561D01*
Y10560042D01*
X9815953Y10585433D01*
X9841345D01*
X9790561Y10534650D02*
Y10433083D01*
X9739778Y10534650D02*
X9663602D01*
X9638211Y10509258D01*
X9663602Y10483867D01*
X9714386D01*
X9739778Y10458475D01*
X9714386Y10433083D01*
X9638211D01*
X9562035Y10407691D02*
Y10433083D01*
X9587427D01*
X9536644D01*
X9562035D01*
Y10509258D01*
X9536644Y10534650D01*
X9460468D02*
X9409685D01*
X9435076D01*
Y10433083D01*
X9460468D01*
X9231942D02*
X9308118D01*
X9333509Y10458475D01*
Y10509258D01*
X9308118Y10534650D01*
X9231942D01*
X9181159D02*
Y10382299D01*
Y10483867D02*
X9104983Y10433083D01*
X9181159Y10483867D02*
X9104983Y10534650D01*
X9028808Y10560042D02*
X8927241D01*
X8876457Y10534650D02*
Y10433083D01*
X8825674Y10382299D01*
X8774890Y10433083D01*
Y10534650D01*
Y10458475D01*
X8876457D01*
X8724107Y10534650D02*
X8673323D01*
X8698715D01*
Y10382299D01*
X8724107Y10407691D01*
X8281637Y10560001D02*
X8180070D01*
Y10407650D01*
X8281637D01*
X8180070Y10483825D02*
X8230853D01*
X8433988Y10534609D02*
X8408596Y10560001D01*
X8357813D01*
X8332421Y10534609D01*
Y10509217D01*
X8357813Y10483825D01*
X8408596D01*
X8433988Y10458433D01*
Y10433042D01*
X8408596Y10407650D01*
X8357813D01*
X8332421Y10433042D01*
X8484771Y10407650D02*
Y10560001D01*
X8560947D01*
X8586339Y10534609D01*
Y10483825D01*
X8560947Y10458433D01*
X8484771D01*
X8637122Y10534609D02*
X8662514Y10560001D01*
X8713298D01*
X8738689Y10534609D01*
Y10509217D01*
X8713298Y10483825D01*
X8687906D01*
X8713298D01*
X8738689Y10458433D01*
Y10433042D01*
X8713298Y10407650D01*
X8662514D01*
X8637122Y10433042D01*
X8891040Y10407650D02*
X8789473D01*
X8891040Y10509217D01*
Y10534609D01*
X8865648Y10560001D01*
X8814865D01*
X8789473Y10534609D01*
%TF.MD5,5647a2f5f109c4e00bbddb66ca14d113*%
M02*
