M48
;Layer_Color=9474304
;FILE_FORMAT=4:4
METRIC,LZ
;TYPE=PLATED
T01F00S00C0.8900
T02F00S00C1.0000
T03F00S00C1.0200
T04F00S00C1.5000
T05F00S00C1.5700
T06F00S00C3.0000
;TYPE=NON_PLATED
T07F00S00C3.2500
%
T01
X00635Y0097282
X006554
X006758
X006962
X00686Y0099062
X006656
X006452
X006248
T02
X0074549Y0107315
X0077089
Y0112395
X0074549
X0079629
X0082169
Y0107315
X0079629
X0113665Y0101981
X0116205
X0118745
X0121285
T03
X0082931Y0061595
Y0064135
Y0066675
Y0069215
Y0071755
Y0074295
Y0076835
X0108331
Y0074295
Y0071755
Y0069215
Y0066675
Y0064135
Y0061595
Y0079375
Y0081915
Y0084455
Y0086995
Y0089535
Y0092075
Y0094615
Y0097155
X0100838Y0108204
X0098298
X0095758
X0093218
X0090678
Y0110744
X0093218
X0095758
X0098298
X0100838
X0082931Y0097155
Y0094615
Y0092075
Y0089535
Y0086995
Y0084455
Y0081915
Y0079375
T04
X0089281Y0063754
X0095885Y0064135
X0102743Y0085979
X0089535Y0095885
X00853052Y01032122
X008255Y0101346
X0086106Y0112141
X0110154Y0107823
X0118618Y0106172
T05
X005791Y0098172
X007417
T06
X0108Y0057
X0079Y0062
X0061Y0111
X0119
T07
X005969Y0094742
X007239
M30
