%TF.GenerationSoftware,Altium Limited,Altium Designer,26.5.1 (12)*%
G04 Layer_Color=16711935*
G04 Board_Origin=0|0*
%FSLAX45Y45*%
%MOMM*%
%TF.SameCoordinates,53A2190E-3553-45D8-A606-77E32103BD55*%
%TF.FilePolarity,Negative*%
%TF.FileFunction,Soldermask,Bot*%
%TF.Part,Single*%
G01*
G75*
%TA.AperFunction,ViaPad*%
%ADD11C,1.52400*%
%TA.AperFunction,ComponentPad*%
%ADD13O,2.03200X1.55000*%
%ADD14C,1.53000*%
%ADD15R,1.75000X2.30000*%
%ADD16C,1.39000*%
%ADD17O,1.75000X2.30000*%
%ADD18R,1.39000X1.39000*%
%ADD19C,2.42000*%
%ADD20C,3.25000*%
%ADD21R,2.03200X1.55000*%
%ADD22R,1.53000X1.53000*%
%TA.AperFunction,ViaPad*%
%ADD23C,2.20000*%
%TA.AperFunction,ComponentPad*%
%ADD29O,1.97800X2.99700*%
D11*
X10800000Y5700000D02*
D03*
X7900000Y6200000D02*
D03*
X6100000Y11100000D02*
D03*
X11900000D02*
D03*
D13*
X9067800Y11074400D02*
D03*
X9829800Y10820400D02*
D03*
X9575800D02*
D03*
X9321800D02*
D03*
X9067800D02*
D03*
X9321800Y11074400D02*
D03*
X9575800D02*
D03*
X9829800D02*
D03*
X10083800D02*
D03*
D14*
X10833100Y6159500D02*
D03*
X8293100Y9461500D02*
D03*
Y6159500D02*
D03*
Y6413500D02*
D03*
Y6667500D02*
D03*
Y6921500D02*
D03*
Y7175500D02*
D03*
Y7429500D02*
D03*
Y7683500D02*
D03*
Y7937500D02*
D03*
Y8191500D02*
D03*
Y8445500D02*
D03*
Y8699500D02*
D03*
Y8953500D02*
D03*
Y9207500D02*
D03*
X10833100Y8699500D02*
D03*
Y8953500D02*
D03*
Y9207500D02*
D03*
Y9715500D02*
D03*
Y9461500D02*
D03*
Y6667500D02*
D03*
Y6921500D02*
D03*
Y7175500D02*
D03*
Y7429500D02*
D03*
Y7683500D02*
D03*
Y7937500D02*
D03*
Y8191500D02*
D03*
Y8445500D02*
D03*
Y6413500D02*
D03*
D15*
X7454900Y11239500D02*
D03*
Y10731500D02*
D03*
D16*
X6350000Y9728200D02*
D03*
X6554000D02*
D03*
X6452000Y9906200D02*
D03*
X6248000D02*
D03*
X6656000D02*
D03*
X6860000D02*
D03*
X6758000Y9728200D02*
D03*
D17*
X7962900Y11239500D02*
D03*
X8216900D02*
D03*
X7962900Y10731500D02*
D03*
X8216900D02*
D03*
X7708900D02*
D03*
Y11239500D02*
D03*
D18*
X6962000Y9728200D02*
D03*
D19*
X7417000Y9817200D02*
D03*
X5791000D02*
D03*
D20*
X7239000Y9474200D02*
D03*
X5969000D02*
D03*
D21*
X10083800Y10820400D02*
D03*
D22*
X8293100Y9715500D02*
D03*
D23*
X9588500Y6413500D02*
D03*
X10274300Y8597900D02*
D03*
X8953500Y9588500D02*
D03*
X11015401Y10782300D02*
D03*
X8530515Y10321215D02*
D03*
X11861800Y10617200D02*
D03*
X8610600Y11214100D02*
D03*
X8928100Y6375400D02*
D03*
X8255000Y10134600D02*
D03*
D29*
X12128500Y10198100D02*
D03*
X11874500D02*
D03*
X11620500D02*
D03*
X11366500D02*
D03*
%TF.MD5,a78cdb49f9197b8ef934b6889e703b2f*%
M02*
